<?xml version="1.0" encoding="utf-8"?>
<!-- Generator: Adobe Illustrator 16.0.0, SVG Export Plug-In . SVG Version: 6.00 Build 0)  -->
<!DOCTYPE svg PUBLIC "-//W3C//DTD SVG 1.1//EN" "http://www.w3.org/Graphics/SVG/1.1/DTD/svg11.dtd">
<svg version="1.1" id="Calque_1" xmlns="http://www.w3.org/2000/svg" xmlns:xlink="http://www.w3.org/1999/xlink" x="0px" y="0px"
	 width="454.636px" height="393.162px" viewBox="108.433 105.293 454.636 393.162"
	 enable-background="new 108.433 105.293 454.636 393.162" xml:space="preserve">
<g>
	<g>
		<polygon fill="#373737" points="563.069,236.531 506.254,269.332 506.217,203.715 335.75,105.293 335.75,105.293 335.75,105.293 
			165.284,203.715 165.247,269.326 108.433,236.531 108.433,302.135 165.281,334.952 165.272,400.027 335.747,498.453 
			335.747,498.455 335.749,498.454 335.75,498.455 335.75,498.455 335.75,498.455 506.225,400.027 506.215,334.955 563.069,302.135 
					"/>
		<polygon fill="#FFFFFF" points="392.565,203.713 392.565,203.713 392.564,203.713 354.688,225.581 335.75,236.516 
			278.936,203.713 222.124,236.521 222.124,302.137 278.936,334.938 278.936,400.564 335.746,433.361 335.755,433.355 
			335.755,433.361 392.565,400.564 392.565,334.938 449.376,302.137 449.376,236.521 		"/>
	</g>
</g>
</svg>
